M48
;Layer_Color=9474304
;FILE_FORMAT=2:4
INCH,LZ
;TYPE=PLATED
T1F00S00C0.0276
T2F00S00C0.0280
T3F00S00C0.0320
T4F00S00C0.0394
T6F00S00C0.0433
T7F00S00C0.0520
T8F00S00C0.0787
T9F00S00C0.1360
%
T01
X061006Y03235
X061794Y03235
T02
X0665Y03235
T03
X06512Y03235
T04
X0666Y021881
Y022866
Y02385
X0637Y02815
X0627
X0617
X062084Y01965
X0611
X060116
X045518Y04055
X044534
X04355
X03805Y0409
Y041884
Y042868
T06
X036294Y0189
Y0199
Y0209
Y0219
Y0229
Y0239
Y0249
Y0259
Y0269
Y0279
Y0289
Y0299
Y0309
X0463
Y0299
Y0289
Y0279
Y0269
Y0259
Y0249
Y0239
Y0229
Y0219
Y0209
Y0199
Y0189
Y0319
Y0329
Y0339
Y0349
Y0359
Y0369
X036294
Y0359
Y0349
Y0339
Y0329
Y0319
T07
X0531Y018415
Y046635
T08
X059803Y036
Y041472
X06685
Y036
T09
X06815Y01695
X05625Y02165
X0338Y01695
X04995Y0434
X06815Y04815
X0338
M30
